<svg width="80" height="80" viewBox="0 0 80 80" fill="none" xmlns="http://www.w3.org/2000/svg">
<path d="M64.2272 17.4333C59.7939 15.3667 54.9939 13.8667 49.9939 13C49.906 13.0013 49.8221 13.0372 49.7605 13.1C49.1605 14.2 48.4605 15.6333 47.9939 16.7333C42.6905 15.9338 37.2973 15.9338 31.9939 16.7333C31.5272 15.6 30.8272 14.2 30.1939 13.1C30.1605 13.0333 30.0605 13 29.9605 13C24.9605 13.8667 20.1939 15.3667 15.7272 17.4333C15.6939 17.4333 15.6605 17.4667 15.6272 17.5C6.56055 31.0667 4.06055 44.2667 5.29388 57.3333C5.29388 57.4 5.32721 57.4667 5.39388 57.5C11.3939 61.9 17.1605 64.5667 22.8605 66.3333C22.9605 66.3667 23.0605 66.3333 23.0939 66.2667C24.4272 64.4333 25.6272 62.5 26.6605 60.4667C26.7272 60.3333 26.6605 60.2 26.5272 60.1667C24.6272 59.4333 22.8272 58.5667 21.0605 57.5667C20.9272 57.5 20.9272 57.3 21.0272 57.2C21.3939 56.9333 21.7605 56.6333 22.1272 56.3667C22.1939 56.3 22.2939 56.3 22.3605 56.3333C33.8272 61.5667 46.1939 61.5667 57.5272 56.3333C57.5939 56.3 57.6939 56.3 57.7605 56.3667C58.1272 56.6667 58.4939 56.9333 58.8605 57.2333C58.9939 57.3333 58.9939 57.5333 58.8272 57.6C57.0939 58.6333 55.2605 59.4667 53.3605 60.2C53.2272 60.2333 53.1939 60.4 53.2272 60.5C54.2939 62.5333 55.4939 64.4667 56.7939 66.3C56.8939 66.3333 56.9939 66.3667 57.0939 66.3333C62.8272 64.5667 68.5939 61.9 74.5939 57.5C74.6605 57.4667 74.6939 57.4 74.6939 57.3333C76.1605 42.2333 72.2605 29.1333 64.3605 17.5C64.3272 17.4667 64.2939 17.4333 64.2272 17.4333ZM28.3939 49.3667C24.9605 49.3667 22.0939 46.2 22.0939 42.3C22.0939 38.4 24.8939 35.2333 28.3939 35.2333C31.9272 35.2333 34.7272 38.4333 34.6939 42.3C34.6939 46.2 31.8939 49.3667 28.3939 49.3667ZM51.6272 49.3667C48.1939 49.3667 45.3272 46.2 45.3272 42.3C45.3272 38.4 48.1272 35.2333 51.6272 35.2333C55.1605 35.2333 57.9605 38.4333 57.9272 42.3C57.9272 46.2 55.1605 49.3667 51.6272 49.3667Z" fill="white"/>
</svg>
