<svg width="80" height="80" viewBox="0 0 80 80" fill="none" xmlns="http://www.w3.org/2000/svg">
<path fill-rule="evenodd" clip-rule="evenodd" d="M65.9234 14.7666C66.7471 14.4199 67.6487 14.3003 68.5343 14.4203C69.4199 14.5403 70.2572 14.8954 70.959 15.4488C71.6608 16.0022 72.2014 16.7336 72.5246 17.5668C72.8478 18.4001 72.9418 19.3047 72.7967 20.1866L65.2367 66.0432C64.5034 70.4666 59.65 73.0032 55.5934 70.7999C52.2 68.9566 47.16 66.1166 42.6267 63.1532C40.36 61.6699 33.4167 56.9199 34.27 53.5399C35.0034 50.6499 46.67 39.7899 53.3367 33.3332C55.9534 30.7966 54.76 29.3332 51.67 31.6666C43.9967 37.4599 31.6767 46.2699 27.6034 48.7499C24.01 50.9366 22.1367 51.3099 19.8967 50.9366C15.81 50.2566 12.02 49.2032 8.92669 47.9199C4.74669 46.1866 4.95003 40.4399 8.92336 38.7666L65.9234 14.7666Z" fill="white"/>
</svg>
