<svg width="80" height="72" viewBox="0 0 80 72" fill="none" xmlns="http://www.w3.org/2000/svg">
<path d="M75.6945 16.3474C76.2084 14.6113 75.6945 13.3335 73.2223 13.3335H65.0417C62.9584 13.3335 62 14.4307 61.4861 15.6529C61.4861 15.6529 57.3195 25.8057 51.4306 32.3891C49.5278 34.2918 48.6528 34.9029 47.6111 34.9029C47.0973 34.9029 46.3056 34.2918 46.3056 32.5557V16.3474C46.3056 14.2641 45.7223 13.3335 44 13.3335H31.1389C29.8334 13.3335 29.0556 14.3057 29.0556 15.2085C29.0556 17.1807 32 17.6391 32.3056 23.1946V35.2502C32.3056 37.8891 31.8334 38.3752 30.7917 38.3752C28.0139 38.3752 21.2639 28.1807 17.2639 16.5141C16.4584 14.2502 15.6667 13.3335 13.5695 13.3335H5.38893C3.0556 13.3335 2.58337 14.4307 2.58337 15.6529C2.58337 17.8196 5.36115 28.5835 15.5139 42.8057C22.2778 52.5141 31.8056 57.7779 40.4723 57.7779C45.6806 57.7779 46.3195 56.6113 46.3195 54.5974C46.3195 45.3196 45.8473 44.4446 48.4584 44.4446C49.6667 44.4446 51.75 45.0557 56.6111 49.7363C62.1667 55.2918 63.0834 57.7779 66.1945 57.7779H74.375C76.7084 57.7779 77.8889 56.6113 77.2084 54.3057C75.6528 49.4585 65.1389 39.4863 64.6667 38.8196C63.4584 37.2641 63.8056 36.5696 64.6667 35.1807C64.6806 35.1668 74.6667 21.1113 75.6945 16.3474Z" fill="white"/>
</svg>
